<?xml version="1.0" encoding="utf-8"?>
<!-- Generator: Adobe Illustrator 16.0.0, SVG Export Plug-In . SVG Version: 6.00 Build 0)  -->
<!DOCTYPE svg PUBLIC "-//W3C//DTD SVG 1.1//EN" "http://www.w3.org/Graphics/SVG/1.1/DTD/svg11.dtd">
<svg version="1.1" id="Layer_1" xmlns="http://www.w3.org/2000/svg" xmlns:xlink="http://www.w3.org/1999/xlink" x="0px" y="0px"
	 width="42.68px" height="9.239px" viewBox="0 0 42.68 9.239" enable-background="new 0 0 42.68 9.239" xml:space="preserve">
<g>
	<path fill="#FFFFFF" d="M4.09,4.332v-3.48h1.262v6.415L1.574,3.664v3.484H0.312V0.734L4.09,4.332z"/>
	<path fill="#FFFFFF" d="M7.586,6.227l-0.41,0.906H6.957H6.906h-0.82h-0.27l2.855-6.398l2.863,6.398h-0.27h-0.82h-0.055h-0.219
		l-0.406-0.91L9.746,6.18H7.602L7.586,6.227z M9.23,5.066L8.676,3.758L8.117,5.066H9.23z"/>
	<path fill="#FFFFFF" d="M13.27,0.852v2.391l1.387-2.391h1.457l-1.859,3.199l2.16,3.098h-1.535L13.27,4.836v2.312h-1.262V0.852
		H13.27z"/>
	<path fill="#FFFFFF" d="M20.66,0.852v1.258h-2.516v1.262h1.887v1.258h-1.887v1.258h2.516v1.262h-2.516h-1.262V0.852H20.66z"/>
	<path fill="#FFFFFF" d="M22.797,0.863c0.863,0,1.68,0.309,2.297,0.926c1.125,1.125,1.125,3.316,0,4.438
		c-0.617,0.613-1.434,0.922-2.297,0.922h-1.555V0.867h1.555V0.863z M22.805,5.887c0.516,0,0.992-0.145,1.359-0.512
		s0.512-0.852,0.512-1.371c0-0.516-0.145-1-0.516-1.371c-0.367-0.371-0.852-0.516-1.367-0.516h-0.289v3.77h0.297H22.805z"/>
	<path fill="#FFFFFF" d="M27.133,5.684c0.445,0,0.805,0.359,0.805,0.805s-0.359,0.805-0.805,0.805s-0.805-0.36-0.805-0.805
		S26.688,5.684,27.133,5.684z"/>
	<path fill="#FFFFFF" d="M31.543,0.836c0.438,0,0.848,0.082,1.234,0.25s0.727,0.395,1.02,0.68l-0.898,0.898
		c-0.379-0.375-0.828-0.562-1.348-0.562c-0.527,0-0.977,0.188-1.348,0.562s-0.559,0.824-0.559,1.348
		c0,0.527,0.188,0.977,0.559,1.348s0.82,0.559,1.348,0.559s0.977-0.188,1.352-0.562l0.898,0.898
		c-0.293,0.289-0.633,0.516-1.02,0.684s-0.797,0.25-1.234,0.25c-0.875,0-1.625-0.313-2.246-0.934s-0.934-1.371-0.934-2.246
		s0.312-1.625,0.934-2.25s1.371-0.938,2.246-0.938L31.543,0.836z"/>
	<path fill="#FFFFFF" d="M36.133,5.898c0.348,0,0.637-0.289,0.637-0.637c0-0.27-0.105-0.441-0.32-0.52
		c-0.453-0.168-0.344-0.129-0.785-0.281c-0.465-0.16-0.895-0.477-1.184-0.871c-0.172-0.234-0.258-0.523-0.258-0.871
		c0-0.523,0.188-0.973,0.562-1.348s0.824-0.562,1.352-0.562c0.523,0,0.973,0.188,1.348,0.562s0.562,0.824,0.562,1.348h-1.27
		c0-0.344-0.289-0.633-0.633-0.633c-0.348,0-0.637,0.289-0.637,0.637c0,0.227,0.09,0.398,0.273,0.516
		c0.375,0.242,0.332,0.195,0.781,0.328c0.484,0.141,0.922,0.441,1.223,0.828c0.176,0.227,0.266,0.52,0.266,0.875
		c0,0.527-0.188,0.977-0.562,1.352s-0.824,0.563-1.348,0.563c-0.527,0-0.977-0.188-1.352-0.563s-0.562-0.824-0.562-1.352H35.5
		c0,0.352,0.285,0.637,0.637,0.637L36.133,5.898z"/>
	<path fill="#FFFFFF" d="M40.496,5.898c0.348,0,0.637-0.289,0.637-0.637c0-0.27-0.105-0.441-0.32-0.52
		c-0.453-0.168-0.344-0.129-0.785-0.281c-0.465-0.16-0.895-0.477-1.184-0.871c-0.172-0.234-0.258-0.523-0.258-0.871
		c0-0.523,0.188-0.973,0.562-1.348s0.824-0.562,1.352-0.562c0.523,0,0.973,0.188,1.348,0.562s0.562,0.824,0.562,1.348h-1.27
		c0-0.344-0.289-0.633-0.633-0.633c-0.348,0-0.637,0.289-0.637,0.637c0,0.227,0.09,0.398,0.273,0.516
		c0.375,0.242,0.332,0.195,0.781,0.328c0.484,0.141,0.922,0.441,1.223,0.828c0.176,0.227,0.266,0.52,0.266,0.875
		c0,0.527-0.188,0.977-0.562,1.352s-0.824,0.563-1.348,0.563c-0.527,0-0.977-0.188-1.352-0.563S38.59,5.797,38.59,5.27h1.273
		c0,0.352,0.285,0.637,0.637,0.637L40.496,5.898z"/>
</g>
</svg>
